<svg width="60" height="60" viewBox="0 0 60 60" fill="none" xmlns="http://www.w3.org/2000/svg">
<g clip-path="url(#clip0_414_483)">
<path d="M16.1533 8.58207C14.5546 9.14854 13.1589 9.65745 11.9191 10.2055L16.1533 8.58207ZM11.9191 10.2055C8.52442 11.7064 6.29837 13.501 4.26993 17.5733C2.91188 20.2996 2.11816 23.2758 1.43864 26.2385C-0.316369 33.8905 2.46658 39.513 7.19063 45.3746C14.1532 54.0139 25.9683 60.9455 37.3863 58.6454C45.6952 56.9715 53.2732 50.4664 56.7877 42.908C59.9013 36.2114 59.2793 29.5565 58.2617 22.4443C55.918 6.06325 40.9409 -2.03865 25.948 1.88716C21.6249 3.01916 17.8527 5.0003 14.5133 7.97228C13.649 8.74155 12.8109 9.50527 11.9191 10.2055ZM11.9191 10.2055C11.383 10.6266 10.8275 11.0247 10.2353 11.3874C6.57022 13.6323 5.37822 18.7084 3.97076 22.393" fill="#E29F18"/>
<path d="M16.1533 8.58207C14.5546 9.14854 13.1589 9.65745 11.9191 10.2055ZM11.9191 10.2055C8.52442 11.7064 6.29837 13.501 4.26993 17.5733C2.91188 20.2996 2.11816 23.2758 1.43864 26.2385C-0.316369 33.8905 2.46658 39.513 7.19063 45.3746C14.1532 54.0139 25.9683 60.9455 37.3863 58.6454C45.6952 56.9715 53.2732 50.4664 56.7877 42.908C59.9013 36.2114 59.2793 29.5565 58.2617 22.4443C55.918 6.06325 40.9409 -2.03865 25.948 1.88716C21.6249 3.01916 17.8527 5.0003 14.5133 7.97228C13.649 8.74155 12.8109 9.50527 11.9191 10.2055ZM11.9191 10.2055C11.383 10.6266 10.8275 11.0247 10.2353 11.3874C6.57022 13.6323 5.37822 18.7084 3.97076 22.393" fill="#E29F18"/>
<path d="M16.1533 8.58207C14.5546 9.14854 13.1589 9.65745 11.9191 10.2055M11.9191 10.2055C8.52442 11.7064 6.29837 13.501 4.26993 17.5733C2.91188 20.2996 2.11816 23.2758 1.43864 26.2385C-0.316369 33.8905 2.46658 39.513 7.19063 45.3746C14.1532 54.0139 25.9683 60.9455 37.3863 58.6454C45.6952 56.9715 53.2732 50.4664 56.7877 42.908C59.9013 36.2114 59.2793 29.5565 58.2617 22.4443C55.918 6.06325 40.9409 -2.03865 25.948 1.88716C21.6249 3.01916 17.8527 5.0003 14.5133 7.97228C13.649 8.74155 12.8109 9.50527 11.9191 10.2055ZM11.9191 10.2055C11.383 10.6266 10.8275 11.0247 10.2353 11.3874C6.57022 13.6323 5.37822 18.7084 3.97076 22.393" stroke="#E29F18" stroke-width="0.795546" stroke-dasharray="9.63 9.63"/>
</g>
<defs>
<clipPath id="clip0_414_483">
<rect width="60" height="60" fill="white"/>
</clipPath>
</defs>
</svg>
